<svg version="1" xmlns="http://www.w3.org/2000/svg" width="853.333" height="853.333" viewBox="0 0 640.000000 640.000000"><path d="M306 50.6c-30.5 2.9-58.6 9.9-84 20.8-72.6 31.5-126.8 96.7-147.6 177.5C63.3 292 62.1 341.1 71 384.6c20.3 99 91.6 173.7 188.5 197.5 23 5.6 37.3 7.2 65.5 7.3 27.1.1 37.4-.8 59.4-5 79.1-15.4 144.1-67.6 171.2-137.6 4.2-10.8 9.5-28 8.9-28.7-.6-.5-136.4-29.1-138.5-29.1-1 0-3.3 3.3-5.8 8.1-17 32.7-40.4 51.5-72.2 58.1-13.1 2.7-38.5 2.1-50.5-1.1-45.7-12.6-76.6-53.4-83.6-110.4-1.7-14.5-.7-44.3 2-58.1 10.8-53.9 45-92.9 88.6-101.1 12-2.3 34.8-1.6 45 1.2 29.1 8.2 51.4 27.6 66.1 57.5 2.3 4.7 4.5 7.8 5.4 7.8 2.2 0 137.9-28.6 138.5-29.2.9-.9-7.6-25.8-12.8-37.6-11.1-24.7-25.3-45.1-45.6-65.2-28.1-28-57.8-45.7-97.6-58.1C382 54.3 359.7 51 332 50.6c-11.8-.2-23.5-.2-26 0z"/></svg>